<?xml version="1.0" encoding="utf-8"?>
<!-- Generator: Adobe Illustrator 14.0.0, SVG Export Plug-In  -->
<!DOCTYPE svg PUBLIC "-//W3C//DTD SVG 1.1//EN" "http://www.w3.org/Graphics/SVG/1.1/DTD/svg11.dtd" [
	<!ENTITY ns_flows "http://ns.adobe.com/Flows/1.0/">
]>
<svg version="1.1"
	 xmlns="http://www.w3.org/2000/svg" xmlns:xlink="http://www.w3.org/1999/xlink" xmlns:a="http://ns.adobe.com/AdobeSVGViewerExtensions/3.0/"
	 x="0px" y="0px" width="117px" height="117px" viewBox="-1 -1 117 117" enable-background="new -1 -1 117 117"
	 xml:space="preserve">
<defs>
</defs>
<circle fill="#91B7E1" cx="57.5" cy="57.5" r="57.5"/>
<path fill="#FFFFFF" d="M57.5,55.155h-1.514H33.32V57.5v24.487c0,0,0.583,2.834,2.833,3.25h19.833H57.5h22.178
	c2.25-0.416,2.833-3.25,2.833-3.25V57.5v-2.345H57.5z"/>
<circle fill="#FFFFFF" cx="33.736" cy="53.738" r="5.5"/>
<path fill="#9FBACE" d="M33.736,59.987c-3.446,0-6.25-2.803-6.25-6.25c0-3.446,2.804-6.25,6.25-6.25s6.25,2.804,6.25,6.25
	C39.986,57.185,37.183,59.987,33.736,59.987L33.736,59.987z M33.736,48.988c-2.619,0-4.75,2.131-4.75,4.75s2.131,4.75,4.75,4.75
	s4.75-2.13,4.75-4.75S36.355,48.988,33.736,48.988L33.736,48.988z"/>
<circle fill="#FFFFFF" cx="45.799" cy="53.738" r="5.5"/>
<path fill="#9FBACE" d="M45.799,59.987c-3.446,0-6.25-2.803-6.25-6.25c0-3.446,2.804-6.25,6.25-6.25s6.25,2.804,6.25,6.25
	C52.049,57.185,49.245,59.987,45.799,59.987L45.799,59.987z M45.799,48.988c-2.619,0-4.75,2.131-4.75,4.75s2.131,4.75,4.75,4.75
	s4.75-2.13,4.75-4.75S48.418,48.988,45.799,48.988L45.799,48.988z"/>
<circle fill="#FFFFFF" cx="57.861" cy="53.738" r="5.5"/>
<path fill="#9FBACE" d="M57.861,59.987c-3.446,0-6.25-2.803-6.25-6.25c0-3.446,2.804-6.25,6.25-6.25s6.25,2.804,6.25,6.25
	C64.111,57.185,61.308,59.987,57.861,59.987L57.861,59.987z M57.861,48.988c-2.619,0-4.75,2.131-4.75,4.75s2.131,4.75,4.75,4.75
	s4.75-2.13,4.75-4.75S60.48,48.988,57.861,48.988L57.861,48.988z"/>
<circle fill="#FFFFFF" cx="69.924" cy="53.738" r="5.5"/>
<path fill="#9FBACE" d="M69.924,59.987c-3.446,0-6.25-2.803-6.25-6.25c0-3.446,2.804-6.25,6.25-6.25s6.25,2.804,6.25,6.25
	C76.174,57.185,73.37,59.987,69.924,59.987L69.924,59.987z M69.924,48.988c-2.619,0-4.75,2.131-4.75,4.75s2.131,4.75,4.75,4.75
	s4.75-2.13,4.75-4.75S72.543,48.988,69.924,48.988L69.924,48.988z"/>
<circle fill="#FFFFFF" cx="81.986" cy="53.738" r="5.5"/>
<path fill="#9FBACE" d="M81.986,59.987c-3.446,0-6.25-2.803-6.25-6.25c0-3.446,2.804-6.25,6.25-6.25s6.25,2.804,6.25,6.25
	C88.236,57.185,85.433,59.987,81.986,59.987L81.986,59.987z M81.986,48.988c-2.619,0-4.75,2.131-4.75,4.75s2.131,4.75,4.75,4.75
	s4.75-2.13,4.75-4.75S84.605,48.988,81.986,48.988L81.986,48.988z"/>
<polygon fill="#FFFFFF" points="78.333,30.321 62.75,30.321 52.986,30.321 37.403,30.321 29.121,53.618 52.986,53.488 62.75,53.488 
	86.567,53.488 "/>
<path fill="#9EB9CB" d="M52.361,64.821h-8.396c0,0-1.719,0.938-1.844,3.188V79.79h11.219l4.504-10.969l2.996,10.969h4.875V67.196
	l5.281,0.031l0.016,2.578c0,0-4.563,1.313-2.984,4.328c0.831,1.146,1.663,2.291,2.494,3.438c0.29,0.398,0.58,0.799,0.87,1.198
	c0.109,0.15,0.218,0.302,0.327,0.451c0.295,0.4,0.705,0.382,1.146,0.382c0.42,0,1.006,0.154,1.388-0.07
	c0.186-0.109,0.356-0.334,0.468-0.514c0.506-0.813-0.034-1.41-0.567-2.01c-0.298-0.335-0.596-0.67-0.894-1.005
	c-0.558-0.627-1.114-1.255-1.672-1.882c-0.194-0.219-0.464-0.412-0.617-0.682c-0.221-0.389,0.009-0.574,0.342-0.783
	c0.284-0.178,0.568-0.357,0.853-0.535c0.568-0.357,1.137-0.713,1.704-1.071c0.104-0.065,0.21-0.132,0.315-0.198l0.156-6.031H63.497
	L63.361,76.79l-4.114-12.844h-2.656l-5.292,13.156l-6.333,0.031l0.125-9.5l7.271,0.031V64.821z"/>
</svg>
