<?xml version="1.0" encoding="utf-8"?>
<!-- Generator: Adobe Illustrator 14.0.0, SVG Export Plug-In  -->
<!DOCTYPE svg PUBLIC "-//W3C//DTD SVG 1.1//EN" "http://www.w3.org/Graphics/SVG/1.1/DTD/svg11.dtd" [
	<!ENTITY ns_flows "http://ns.adobe.com/Flows/1.0/">
]>
<svg version="1.1"
	 xmlns="http://www.w3.org/2000/svg" xmlns:xlink="http://www.w3.org/1999/xlink" xmlns:a="http://ns.adobe.com/AdobeSVGViewerExtensions/3.0/"
	 x="0px" y="0px" width="38px" height="42px" viewBox="-0.938 -0.789 38 42" enable-background="new -0.938 -0.789 38 42"
	 xml:space="preserve">
<defs>
</defs>
<path fill="#AAAAAC" d="M31.125,3.999h-2.041v2h2.041c1.654,0,3,1.346,3,3v27c0,1.654-1.346,3-3,3H5c-1.654,0-3-1.346-3-3v-27
	c0-1.654,1.346-3,3-3h2.042v-2H5c-2.757,0-5,2.243-5,5v27c0,2.757,2.243,5,5,5h26.125c2.757,0,5-2.243,5-5v-27
	C36.125,6.242,33.882,3.999,31.125,3.999z"/>
<path fill="#AAAAAC" d="M11.749,9.92l12.466,0.038l0.134-0.038c3.062-0.866,3.686-4.019,3.71-4.152L28.076,0H8.021v5.583
	l0.018,0.185C8.063,5.901,8.688,9.054,11.749,9.92z M10.021,2h16.055v3.473c-0.095,0.38-0.578,1.968-2.148,2.485H12.17
	c-1.574-0.519-2.057-2.115-2.148-2.484V2z"/>
<rect x="8.104" y="16.042" fill="#AAAAAC" width="19.709" height="2"/>
<rect x="8.104" y="23" fill="#AAAAAC" width="19.709" height="2"/>
<rect x="8.104" y="29.958" fill="#AAAAAC" width="19.709" height="2"/>
</svg>
