<?xml version="1.0" encoding="utf-8"?>
<!-- Generator: Adobe Illustrator 14.0.0, SVG Export Plug-In  -->
<!DOCTYPE svg PUBLIC "-//W3C//DTD SVG 1.1//EN" "http://www.w3.org/Graphics/SVG/1.1/DTD/svg11.dtd" [
	<!ENTITY ns_flows "http://ns.adobe.com/Flows/1.0/">
]>
<svg version="1.1"
	 xmlns="http://www.w3.org/2000/svg" xmlns:xlink="http://www.w3.org/1999/xlink" xmlns:a="http://ns.adobe.com/AdobeSVGViewerExtensions/3.0/"
	 x="0px" y="0px" width="117px" height="117px" viewBox="-1 -1 117 117" enable-background="new -1 -1 117 117"
	 xml:space="preserve">
<defs>
</defs>
<circle fill="#F7BA25" cx="57.5" cy="57.5" r="57.5"/>
<path fill="#FFFFFF" d="M92.67,45.941c-1.365-2.854-7.939,0.744-7.939,0.744l-9.428-16.251H55.949h-0.868H39.698L30.27,46.686
	c0,0-6.575-3.598-7.939-0.744s1.365,3.97,2.978,4.342l1.985,0.744c0,0-9.18,15.135,1.24,24.564c0,0-0.62,8.684,5.458,8.932
	c0,0,7.071,0.992,6.947-6.576l14.627-0.121l18.497,0.121c-0.125,7.568,6.947,6.576,6.947,6.576c6.078-0.248,5.457-8.932,5.457-8.932
	c10.422-9.43,1.24-24.564,1.24-24.564l1.986-0.744C91.305,49.911,94.035,48.795,92.67,45.941z"/>
<rect x="48.795" y="65.625" fill="#F7BA25" width="19.187" height="2.307"/>
<path fill="#F7BA25" d="M82.346,67.113c-1.414,1.127-4.359,1.627-5.928,0.676c-1.848-1.125-0.422-3.957,0.879-4.859
	c0.014-0.012,0.02-0.02,0.033-0.029c1.568-0.973,4.219-1.002,5.664-0.061C84.738,63.977,83.857,65.91,82.346,67.113z"/>
<path fill="#F7BA25" d="M38.582,67.789c-1.567,0.951-4.513,0.451-5.928-0.676c-1.511-1.203-2.392-3.137-0.647-4.273
	c1.444-0.941,4.096-0.912,5.664,0.061c0.014,0.01,0.019,0.018,0.034,0.029C39.005,63.832,40.431,66.664,38.582,67.789z"/>
<path fill="#FEC663" d="M72.449,49.663l-16.878,0.12l-13.02-0.12c-7.443,0.372-8.932-1.489-8.932-1.489l8.063-14.515h13.398h0.868
	h17.369l8.063,14.515C81.381,48.174,79.893,50.035,72.449,49.663z"/>
</svg>

