<?xml version="1.0" encoding="utf-8"?>
<!-- Generator: Adobe Illustrator 14.0.0, SVG Export Plug-In  -->
<!DOCTYPE svg PUBLIC "-//W3C//DTD SVG 1.1//EN" "http://www.w3.org/Graphics/SVG/1.1/DTD/svg11.dtd" [
	<!ENTITY ns_flows "http://ns.adobe.com/Flows/1.0/">
]>
<svg version="1.1"
	 xmlns="http://www.w3.org/2000/svg" xmlns:xlink="http://www.w3.org/1999/xlink" xmlns:a="http://ns.adobe.com/AdobeSVGViewerExtensions/3.0/"
	 x="0px" y="0px" width="40px" height="43px" viewBox="-0.816 -0.413 40 43" enable-background="new -0.816 -0.413 40 43"
	 xml:space="preserve">
<defs>
</defs>
<path fill="#AAAAAC" d="M37.713,33.692l-0.058-0.141c-2.661-5.459-7.442-9.325-13.095-10.839c3.921-1.977,6.623-6.03,6.623-10.713
	c0-6.617-5.383-12-12-12s-12,5.383-12,12c0,4.694,2.716,8.757,6.653,10.728c-5.659,1.543-10.538,5.47-13.154,10.873
	c-0.884,1.764-0.91,3.341-0.078,4.688c2.116,3.43,9.445,4.149,15.222,4.149c1.561,0,2.587-0.058,2.573-0.059l2.237-0.002
	c0.042,0.003,1.034,0.061,2.541,0.061c5.508,0,12.509-0.706,14.582-4.066C38.587,37.03,38.571,35.457,37.713,33.692z M9.184,12
	c0-5.514,4.486-10,10-10s10,4.486,10,10s-4.486,10-10,10S9.184,17.514,9.184,12z M36.058,37.321
	c-1.204,1.952-6.02,3.117-12.88,3.117c-1.442,0-2.413-0.057-2.481-0.059l-2.354,0.002c-0.01,0-1.019,0.057-2.517,0.057
	c-7.229,0-12.283-1.196-13.52-3.199c-0.432-0.699-0.399-1.554,0.099-2.608l0.001,0.001l0.072-0.152
	C5.557,28.113,12.113,24,19.181,24c7.118,0,13.482,3.959,16.634,10.34l0.063,0.151C36.458,35.65,36.518,36.576,36.058,37.321z"/>
</svg>
