<?xml version="1.0" encoding="utf-8"?>
<!-- Generator: Adobe Illustrator 14.0.0, SVG Export Plug-In  -->
<!DOCTYPE svg PUBLIC "-//W3C//DTD SVG 1.1//EN" "http://www.w3.org/Graphics/SVG/1.1/DTD/svg11.dtd" [
	<!ENTITY ns_flows "http://ns.adobe.com/Flows/1.0/">
]>
<svg version="1.1"
	 xmlns="http://www.w3.org/2000/svg" xmlns:xlink="http://www.w3.org/1999/xlink" xmlns:a="http://ns.adobe.com/AdobeSVGViewerExtensions/3.0/"
	 x="0px" y="0px" width="50px" height="38px" viewBox="-0.824 -0.529 50 38" enable-background="new -0.824 -0.529 50 38"
	 xml:space="preserve">
<defs>
</defs>
<path fill="#AAAAAC" d="M47.965,10.52c-0.926-1.937-5.386,0.505-5.386,0.505L36.184,0H23.056h-0.589H12.031L5.636,11.024
	c0,0-4.459-2.44-5.385-0.505c-0.925,1.937,0.926,2.693,2.02,2.945l1.347,0.504c0,0-6.228,10.269,0.841,16.663
	c0,0-0.421,5.892,3.703,6.06c0,0,4.796,0.673,4.712-4.461l9.922-0.081l12.547,0.081c-0.085,5.134,4.712,4.461,4.712,4.461
	c4.123-0.168,3.702-6.06,3.702-6.06c7.069-6.396,0.841-16.663,0.841-16.663l1.348-0.504C47.039,13.213,48.891,12.455,47.965,10.52z
	 M11.274,25.34c-1.063,0.646-3.062,0.306-4.021-0.458c-1.026-0.816-1.623-2.128-0.439-2.898c0.98-0.64,2.779-0.619,3.842,0.04
	c0.01,0.008,0.013,0.013,0.023,0.02C11.562,22.656,12.529,24.576,11.274,25.34z M31.218,25.437H18.203v-1.564h13.016V25.437z
	 M34.248,13.045l-11.45,0.081l-8.831-0.081c-5.049,0.251-6.059-1.012-6.059-1.012l5.469-9.845h9.089h0.588h11.783l5.469,9.845
	C40.307,12.033,39.297,13.296,34.248,13.045z M40.961,24.882c-0.959,0.764-2.957,1.104-4.021,0.458
	c-1.253-0.764-0.286-2.684,0.596-3.297c0.009-0.007,0.014-0.014,0.022-0.02c1.064-0.659,2.862-0.68,3.842-0.04
	C42.584,22.754,41.987,24.065,40.961,24.882z"/>
</svg>
